<?xml version="1.0" encoding="UTF-8"?>
<!--
  SPDX-FileCopyrightText: 2024 Nextcloud GmbH and Nextcloud contributors
  SPDX-License-Identifier: AGPL-3.0-or-later
-->
<svg width="128" height="128" viewBox="0 0 128 128" xmlns="http://www.w3.org/2000/svg">
  <defs>
    <linearGradient id="bgGradient" x1="0%" y1="0%" x2="100%" y2="100%">
      <stop offset="0%" style="stop-color:#0082c9;stop-opacity:1" />
      <stop offset="100%" style="stop-color:#0066a1;stop-opacity:1" />
    </linearGradient>
    <linearGradient id="iconGradient" x1="0%" y1="0%" x2="100%" y2="100%">
      <stop offset="0%" style="stop-color:#ffffff;stop-opacity:1" />
      <stop offset="100%" style="stop-color:#f0f0f0;stop-opacity:1" />
    </linearGradient>
  </defs>

  <circle cx="64" cy="64" r="60" fill="url(#bgGradient)" stroke="#ffffff" stroke-width="4"/>

  <g transform="translate(32, 32)">
    <path d="M8 12 L8 48 L56 48 L56 20 L32 20 L28 12 Z" fill="url(#iconGradient)" stroke="#0082c9" stroke-width="1.5"/>
    <path d="M8 12 L28 12 L32 20 L8 20 Z" fill="#ffffff" stroke="#0082c9" stroke-width="1.5"/>
    <rect x="16" y="32" width="4" height="8" fill="#0082c9"/>
    <rect x="22" y="28" width="4" height="12" fill="#0082c9"/>
    <rect x="28" y="24" width="4" height="16" fill="#0082c9"/>
    <rect x="34" y="30" width="4" height="10" fill="#0082c9"/>
    <rect x="40" y="26" width="4" height="14" fill="#0082c9"/>
    <circle cx="48" cy="36" r="6" fill="none" stroke="#0082c9" stroke-width="1.5"/>
    <line x1="48" y1="36" x2="48" y2="32" stroke="#0082c9" stroke-width="1.5" stroke-linecap="round"/>
    <line x1="48" y1="36" x2="51" y2="36" stroke="#0082c9" stroke-width="1.5" stroke-linecap="round"/>
  </g>

  <circle cx="24" cy="24" r="3" fill="#ffffff" opacity="0.8"/>
  <circle cx="104" cy="24" r="3" fill="#ffffff" opacity="0.8"/>
  <circle cx="24" cy="104" r="3" fill="#ffffff" opacity="0.8"/>
  <circle cx="104" cy="104" r="3" fill="#ffffff" opacity="0.8"/>
</svg>
